<?xml version="1.0" standalone="no"?>
<!DOCTYPE svg PUBLIC "-//W3C//DTD SVG 20010904//EN"
 "http://www.w3.org/TR/2001/REC-SVG-20010904/DTD/svg10.dtd">
<svg version="1.0" xmlns="http://www.w3.org/2000/svg"
 width="96.000000pt" height="96.000000pt" viewBox="0 0 96.000000 96.000000"
 preserveAspectRatio="xMidYMid meet">

<g transform="translate(0.000000,96.000000) scale(0.100000,-0.100000)"
fill="#000000" stroke="none">
<path d="M263 865 c-12 -8 -44 -69 -74 -140 -53 -123 -54 -125 -86 -125 -27 0
-63 -21 -63 -36 0 -2 25 -93 55 -202 44 -161 59 -201 80 -219 26 -23 30 -23
305 -23 275 0 279 0 305 23 21 18 36 58 80 219 30 109 55 200 55 202 0 15 -36
36 -63 36 -32 0 -33 2 -86 125 -30 71 -62 132 -74 140 -31 22 -403 22 -434 0z
m434 -162 l41 -98 -129 -3 c-71 -1 -187 -1 -258 0 l-129 3 41 98 41 97 176 0
176 0 41 -97z m130 -196 c-3 -7 -15 -49 -27 -92 -12 -44 -30 -110 -41 -148
l-20 -67 -261 2 -261 3 -37 135 c-20 74 -40 145 -44 158 l-7 22 351 0 c285 0
351 -2 347 -13z"/>
<path d="M296 424 c-25 -24 -22 -120 3 -134 25 -13 27 -13 45 6 10 9 16 33 16
60 0 75 -28 104 -64 68z"/>
<path d="M456 424 c-25 -24 -22 -120 3 -134 25 -13 27 -13 45 6 10 9 16 33 16
60 0 75 -28 104 -64 68z"/>
<path d="M616 424 c-25 -24 -22 -120 3 -134 25 -13 27 -13 45 6 10 9 16 33 16
60 0 75 -28 104 -64 68z"/>
</g>
</svg>
