<?xml version="1.0" standalone="no"?>
<!DOCTYPE svg PUBLIC "-//W3C//DTD SVG 20010904//EN"
 "http://www.w3.org/TR/2001/REC-SVG-20010904/DTD/svg10.dtd">
<svg version="1.0" xmlns="http://www.w3.org/2000/svg"
 width="96.000000pt" height="96.000000pt" viewBox="0 0 96.000000 96.000000"
 preserveAspectRatio="xMidYMid meet">

<g transform="translate(0.000000,96.000000) scale(0.100000,-0.100000)"
fill="#000000" stroke="none">
<path d="M182 777 c-23 -23 -42 -49 -42 -57 0 -8 51 -65 112 -127 l113 -113
-113 -113 c-61 -62 -112 -119 -112 -127 0 -19 80 -100 99 -100 9 0 66 51 128
112 l113 113 113 -113 c62 -61 119 -112 128 -112 19 0 99 81 99 100 0 8 -51
65 -112 127 l-113 113 113 113 c61 62 112 119 112 127 0 19 -80 100 -99 100
-9 0 -66 -51 -128 -112 l-113 -113 -113 113 c-62 61 -119 112 -128 112 -8 0
-34 -19 -57 -43z"/>
</g>
</svg>
