<?xml version="1.0" standalone="no"?>
<!DOCTYPE svg PUBLIC "-//W3C//DTD SVG 20010904//EN"
 "http://www.w3.org/TR/2001/REC-SVG-20010904/DTD/svg10.dtd">
<svg version="1.0" xmlns="http://www.w3.org/2000/svg"
 width="1024.000000pt" height="1024.000000pt" viewBox="0 0 1024.000000 1024.000000"
 preserveAspectRatio="xMidYMid meet">

<g transform="translate(0.000000,1024.000000) scale(0.100000,-0.100000)"
fill="#000000" stroke="none">
<path d="M6554 8280 c-686 -1072 -1249 -1948 -1250 -1947 -4 4 56 1036 61
1063 3 13 21 28 47 40 120 54 272 178 360 294 64 83 142 243 170 345 22 79 23
91 26 863 l3 782 -843 0 -843 0 -88 -141 c-49 -77 -92 -139 -96 -137 -5 2 -63
65 -131 141 l-124 137 -483 0 -484 0 4 -777 c3 -768 3 -779 25 -863 28 -106
105 -265 170 -350 88 -117 214 -220 350 -289 57 -29 62 -34 62 -65 0 -43 97
-1680 105 -1768 l6 -68 -58 0 -58 0 -653 1280 c-360 703 -659 1284 -666 1289
-21 18 -1699 1092 -1701 1089 -1 -2 10 -442 23 -978 l24 -975 434 -849 c239
-467 434 -851 434 -853 0 -1 -155 -3 -345 -3 l-345 0 3 -2342 3 -2343 22 -85
c89 -332 353 -592 722 -708 193 -61 -24 -57 3265 -57 3289 0 3072 -4 3265 57
368 116 633 376 722 706 16 61 21 119 25 280 l6 202 26 6 c300 68 510 175 696
355 164 159 258 321 312 539 14 56 17 174 20 875 5 848 1 963 -38 1111 -73
284 -303 550 -609 704 -100 50 -291 116 -366 127 l-44 6 0 283 0 284 -600 2
-601 3 1102 1720 c605 946 1103 1725 1106 1731 4 10 -1897 1234 -1916 1234 -5
0 -571 -877 -1257 -1950z m1974 890 c271 -173 492 -319 492 -325 -1 -5 -475
-750 -1055 -1655 l-1053 -1645 -418 -3 c-399 -2 -418 -1 -438 17 -12 10 -111
76 -221 146 -110 70 -206 133 -213 140 -10 9 43 98 270 453 172 268 288 440
295 438 7 -3 105 -64 218 -137 114 -73 223 -138 243 -145 121 -43 268 22 318
141 36 88 12 215 -54 278 -15 14 -121 86 -237 160 -119 77 -210 141 -209 149
1 10 466 749 488 775 1 1 100 -61 220 -138 257 -165 282 -178 345 -186 98 -11
213 55 254 146 30 68 28 162 -5 226 -14 28 -34 57 -44 67 -11 9 -124 83 -252
165 -128 81 -233 152 -233 156 -1 6 367 585 679 1070 l43 67 38 -22 c21 -13
259 -165 529 -338z m-4651 -252 c143 -161 270 -301 281 -311 19 -17 23 -12
214 290 l194 308 447 3 447 2 0 -469 c0 -310 -4 -488 -11 -523 -28 -132 -128
-257 -254 -319 l-70 -34 -700 0 -700 0 -70 34 c-130 64 -228 191 -255 330 -6
32 -10 244 -10 517 l0 464 113 0 113 0 261 -292z m-2682 -791 c94 -61 188
-121 209 -135 l39 -24 -213 -109 c-118 -59 -215 -107 -216 -106 -1 1 -6 114
-10 251 -6 212 -5 248 7 241 8 -5 91 -58 184 -118z m1191 -1557 l524 -1025
-472 -3 c-370 -2 -475 1 -484 10 -12 14 -840 1634 -846 1656 -3 12 728 394
746 389 4 -2 244 -464 532 -1027z m2460 698 c-3 -40 -26 -422 -51 -848 -25
-426 -48 -799 -51 -827 l-5 -53 -315 0 c-173 0 -314 2 -314 4 0 23 -101 1688
-105 1734 l-6 62 427 0 426 0 -6 -72z m3364 -4273 c0 -1467 -3 -2049 -11
-2087 -13 -62 -36 -109 -77 -160 -75 -95 -222 -183 -359 -215 -75 -17 -207
-18 -3058 -18 -2851 0 -2983 1 -3058 18 -121 29 -230 88 -313 171 -39 39 -81
94 -95 121 l-24 50 -3 2078 -2 2077 3500 0 3500 0 0 -2035z m586 1431 c223
-76 385 -222 447 -406 21 -64 22 -72 25 -850 2 -500 -1 -816 -7 -870 -26 -206
-182 -387 -414 -480 -40 -16 -84 -32 -99 -35 l-28 -7 0 1336 c0 735 1 1336 3
1336 2 0 35 -11 73 -24z"/>
</g>
</svg>
