<?xml version="1.0" standalone="no"?>
<!DOCTYPE svg PUBLIC "-//W3C//DTD SVG 20010904//EN"
 "http://www.w3.org/TR/2001/REC-SVG-20010904/DTD/svg10.dtd">
<svg version="1.0" xmlns="http://www.w3.org/2000/svg"
 width="96.000000pt" height="96.000000pt" viewBox="0 0 96.000000 96.000000"
 preserveAspectRatio="xMidYMid meet">

<g transform="translate(0.000000,96.000000) scale(0.100000,-0.100000)"
fill="#000000" stroke="none">
<path d="M373 945 c-238 -52 -403 -296 -364 -538 33 -204 194 -365 399 -398
313 -51 594 230 543 543 -16 102 -62 190 -135 263 -73 73 -142 111 -233 130
-82 18 -129 18 -210 0z m173 -144 c61 -28 89 -73 89 -143 0 -42 -5 -64 -21
-85 -73 -98 -195 -98 -268 0 -31 42 -29 130 3 176 26 36 90 71 131 71 14 0 43
-9 66 -19z m101 -397 c79 -38 111 -149 57 -199 -37 -34 -101 -63 -167 -76 -95
-17 -216 16 -281 76 -53 49 -22 160 56 198 48 24 285 24 335 1z"/>
</g>
</svg>
